<svg width="121" height="51" viewBox="0 0 121 51" fill="none" xmlns="http://www.w3.org/2000/svg">
<path d="M1.584 8.6V24H5.852V8.6H1.584ZM4.312 12.054H7.282C7.95667 12.054 8.47733 12.2007 8.844 12.494C9.21067 12.7873 9.394 13.2053 9.394 13.748C9.394 14.3053 9.21067 14.7307 8.844 15.024C8.47733 15.3173 7.95667 15.464 7.282 15.464H4.312V18.896H7.282C8.69 18.896 9.84867 18.6907 10.758 18.28C11.682 17.8693 12.364 17.2753 12.804 16.498C13.2587 15.7207 13.486 14.804 13.486 13.748C13.486 12.6773 13.2587 11.7607 12.804 10.998C12.364 10.2353 11.682 9.64867 10.758 9.238C9.84867 8.81267 8.69 8.6 7.282 8.6H4.312V12.054ZM19.1957 6.84H15.3897V24H19.1957V6.84ZM21.9677 17.84V24H25.7737V17.268C25.7737 16.4467 25.6637 15.7573 25.4437 15.2C25.2237 14.628 24.8644 14.1953 24.3657 13.902C23.867 13.6087 23.1777 13.462 22.2977 13.462C21.4177 13.462 20.7064 13.66 20.1637 14.056C19.6357 14.452 19.247 14.98 18.9977 15.64C18.7484 16.3 18.6237 17.0333 18.6237 17.84H19.1957C19.1957 17.4733 19.2544 17.1727 19.3717 16.938C19.5037 16.6887 19.6797 16.5053 19.8997 16.388C20.1344 16.256 20.3984 16.19 20.6917 16.19C21.1904 16.19 21.5277 16.3367 21.7037 16.63C21.8797 16.9087 21.9677 17.312 21.9677 17.84ZM27.9304 10.206C27.9304 10.778 28.1357 11.2473 28.5464 11.614C28.9717 11.9807 29.4777 12.164 30.0644 12.164C30.6657 12.164 31.1717 11.9807 31.5824 11.614C32.0077 11.2473 32.2204 10.778 32.2204 10.206C32.2204 9.61933 32.0077 9.14267 31.5824 8.776C31.1717 8.40933 30.6657 8.226 30.0644 8.226C29.4777 8.226 28.9717 8.40933 28.5464 8.776C28.1357 9.14267 27.9304 9.61933 27.9304 10.206ZM28.2384 13.88V24H31.8904V13.88H28.2384ZM34.3819 6.84V24H38.1879V6.84H34.3819ZM40.0629 18.94C40.0629 20.0107 40.3195 20.942 40.8329 21.734C41.3462 22.526 42.0502 23.142 42.9449 23.582C43.8542 24.0073 44.8735 24.22 46.0029 24.22C47.1469 24.22 48.1662 24.0073 49.0609 23.582C49.9555 23.142 50.6595 22.526 51.1729 21.734C51.7009 20.942 51.9649 20.0107 51.9649 18.94C51.9649 17.8547 51.7009 16.916 51.1729 16.124C50.6595 15.332 49.9555 14.7233 49.0609 14.298C48.1662 13.858 47.1469 13.638 46.0029 13.638C44.8735 13.638 43.8542 13.858 42.9449 14.298C42.0502 14.7233 41.3462 15.332 40.8329 16.124C40.3195 16.916 40.0629 17.8547 40.0629 18.94ZM43.9789 18.94C43.9789 18.4707 44.0669 18.0747 44.2429 17.752C44.4335 17.4147 44.6829 17.158 44.9909 16.982C45.2989 16.806 45.6362 16.718 46.0029 16.718C46.3695 16.718 46.7069 16.806 47.0149 16.982C47.3229 17.158 47.5722 17.4147 47.7629 17.752C47.9535 18.0747 48.0489 18.4707 48.0489 18.94C48.0489 19.4093 47.9535 19.8127 47.7629 20.15C47.5722 20.4727 47.3229 20.722 47.0149 20.898C46.7069 21.0593 46.3695 21.14 46.0029 21.14C45.6362 21.14 45.2989 21.0593 44.9909 20.898C44.6829 20.722 44.4335 20.4727 44.2429 20.15C44.0669 19.8127 43.9789 19.4093 43.9789 18.94Z" fill="#FF0000"/>
<path d="M20.044 31.406H24.356V43H28.624V31.406H32.936V27.6H20.044V31.406ZM37.9926 25.84H34.1866V43H37.9926V25.84ZM40.7646 36.84V43H44.5706V36.268C44.5706 35.4467 44.4606 34.7573 44.2406 34.2C44.0206 33.628 43.6612 33.1953 43.1626 32.902C42.6639 32.6087 41.9746 32.462 41.0946 32.462C40.2146 32.462 39.5032 32.66 38.9606 33.056C38.4326 33.452 38.0439 33.98 37.7946 34.64C37.5452 35.3 37.4206 36.0333 37.4206 36.84H37.9926C37.9926 36.4733 38.0512 36.1727 38.1686 35.938C38.3006 35.6887 38.4766 35.5053 38.6966 35.388C38.9312 35.256 39.1952 35.19 39.4886 35.19C39.9872 35.19 40.3246 35.3367 40.5006 35.63C40.6766 35.9087 40.7646 36.312 40.7646 36.84ZM46.4633 37.94C46.4633 39.0107 46.7199 39.942 47.2332 40.734C47.7466 41.526 48.4506 42.142 49.3453 42.582C50.2546 43.0073 51.2739 43.22 52.4033 43.22C53.5473 43.22 54.5666 43.0073 55.4613 42.582C56.3559 42.142 57.0599 41.526 57.5733 40.734C58.1013 39.942 58.3653 39.0107 58.3653 37.94C58.3653 36.8547 58.1013 35.916 57.5733 35.124C57.0599 34.332 56.3559 33.7233 55.4613 33.298C54.5666 32.858 53.5473 32.638 52.4033 32.638C51.2739 32.638 50.2546 32.858 49.3453 33.298C48.4506 33.7233 47.7466 34.332 47.2332 35.124C46.7199 35.916 46.4633 36.8547 46.4633 37.94ZM50.3793 37.94C50.3793 37.4707 50.4673 37.0747 50.6433 36.752C50.8339 36.4147 51.0833 36.158 51.3913 35.982C51.6993 35.806 52.0366 35.718 52.4033 35.718C52.7699 35.718 53.1073 35.806 53.4153 35.982C53.7233 36.158 53.9726 36.4147 54.1633 36.752C54.3539 37.0747 54.4493 37.4707 54.4493 37.94C54.4493 38.4093 54.3539 38.8127 54.1633 39.15C53.9726 39.4727 53.7233 39.722 53.4153 39.898C53.1073 40.0593 52.7699 40.14 52.4033 40.14C52.0366 40.14 51.6993 40.0593 51.3913 39.898C51.0833 39.722 50.8339 39.4727 50.6433 39.15C50.4673 38.8127 50.3793 38.4093 50.3793 37.94ZM64.2291 39.04V32.88H60.2471V39.436C60.2471 40.6387 60.5258 41.5773 61.0831 42.252C61.6404 42.912 62.5791 43.242 63.8991 43.242C64.6618 43.242 65.2924 43.088 65.7911 42.78C66.3044 42.4573 66.7078 42.032 67.0011 41.504V43H70.8071V32.88H67.0011V39.04C67.0011 39.4067 66.9351 39.7147 66.8031 39.964C66.6858 40.2133 66.5171 40.3967 66.2971 40.514C66.0771 40.6313 65.8058 40.69 65.4831 40.69C64.9991 40.69 64.6691 40.5507 64.4931 40.272C64.3171 39.9787 64.2291 39.568 64.2291 39.04ZM72.9157 43.748C73.0183 44.6427 73.275 45.4347 73.6857 46.124C74.0963 46.828 74.7123 47.3707 75.5337 47.752C76.355 48.1333 77.4403 48.324 78.7897 48.324C79.875 48.324 80.843 48.1407 81.6937 47.774C82.559 47.4073 83.2483 46.8133 83.7617 45.992C84.275 45.1853 84.5317 44.1147 84.5317 42.78V32.88H80.9017V42.78C80.9017 43.3373 80.799 43.8067 80.5937 44.188C80.403 44.5693 80.1317 44.8553 79.7797 45.046C79.4423 45.2513 79.0463 45.354 78.5917 45.354C78.2397 45.354 77.917 45.3027 77.6237 45.2C77.3303 45.0973 77.0957 44.9287 76.9197 44.694C76.7437 44.4593 76.6263 44.144 76.5677 43.748H72.9157ZM72.6957 37.764C72.6957 38.908 72.923 39.8613 73.3777 40.624C73.847 41.372 74.441 41.9367 75.1597 42.318C75.893 42.6847 76.6557 42.868 77.4477 42.868C78.2983 42.868 79.0537 42.67 79.7137 42.274C80.3737 41.878 80.8943 41.2987 81.2757 40.536C81.6717 39.7733 81.8697 38.8493 81.8697 37.764C81.8697 36.664 81.6717 35.74 81.2757 34.992C80.8943 34.2293 80.3737 33.65 79.7137 33.254C79.0537 32.858 78.2983 32.66 77.4477 32.66C76.6557 32.66 75.893 32.8507 75.1597 33.232C74.441 33.5987 73.847 34.156 73.3777 34.904C72.923 35.652 72.6957 36.6053 72.6957 37.764ZM76.6997 37.764C76.6997 37.3093 76.795 36.928 76.9857 36.62C77.1763 36.2973 77.433 36.0553 77.7557 35.894C78.0783 35.7327 78.4303 35.652 78.8117 35.652C79.061 35.652 79.3103 35.696 79.5597 35.784C79.809 35.8573 80.0363 35.982 80.2417 36.158C80.447 36.334 80.6083 36.554 80.7257 36.818C80.843 37.082 80.9017 37.3973 80.9017 37.764C80.9017 38.248 80.799 38.644 80.5937 38.952C80.3883 39.26 80.1243 39.4947 79.8017 39.656C79.479 39.8027 79.149 39.876 78.8117 39.876C78.4303 39.876 78.0783 39.7953 77.7557 39.634C77.433 39.4727 77.1763 39.2307 76.9857 38.908C76.795 38.5853 76.6997 38.204 76.6997 37.764ZM90.7152 25.84H86.9092V43H90.7152V25.84ZM93.4872 36.84V43H97.2932V36.268C97.2932 35.4467 97.1832 34.7573 96.9632 34.2C96.7432 33.628 96.3839 33.1953 95.8852 32.902C95.3866 32.6087 94.6972 32.462 93.8172 32.462C92.9372 32.462 92.2259 32.66 91.6832 33.056C91.1552 33.452 90.7666 33.98 90.5172 34.64C90.2679 35.3 90.1432 36.0333 90.1432 36.84H90.7152C90.7152 36.4733 90.7739 36.1727 90.8912 35.938C91.0232 35.6887 91.1992 35.5053 91.4192 35.388C91.6539 35.256 91.9179 35.19 92.2112 35.19C92.7099 35.19 93.0472 35.3367 93.2232 35.63C93.3992 35.9087 93.4872 36.312 93.4872 36.84ZM98.6139 32.88V35.96H105.896V32.88H98.6139ZM100.44 29.36V43H104.07V29.36H100.44ZM107.784 39.15L106.398 41.746C106.926 42.0833 107.476 42.384 108.048 42.648C108.62 42.912 109.229 43.1173 109.874 43.264C110.534 43.4107 111.238 43.484 111.986 43.484C113.233 43.484 114.193 43.2127 114.868 42.67C115.557 42.1273 115.902 41.284 115.902 40.14C115.902 39.5093 115.763 39.0033 115.484 38.622C115.22 38.2407 114.868 37.9327 114.428 37.698C114.003 37.4487 113.533 37.2287 113.02 37.038C112.477 36.8327 112.03 36.6713 111.678 36.554C111.326 36.4367 111.062 36.3193 110.886 36.202C110.71 36.07 110.622 35.9013 110.622 35.696C110.622 35.5493 110.681 35.4247 110.798 35.322C110.93 35.2193 111.135 35.168 111.414 35.168C111.854 35.168 112.36 35.3 112.932 35.564C113.519 35.8133 114.047 36.1433 114.516 36.554L115.638 34.024C115.183 33.76 114.721 33.5327 114.252 33.342C113.783 33.1367 113.284 32.9753 112.756 32.858C112.243 32.726 111.685 32.66 111.084 32.66C110.307 32.66 109.625 32.7773 109.038 33.012C108.451 33.232 107.989 33.562 107.652 34.002C107.315 34.4273 107.146 34.9553 107.146 35.586C107.146 36.246 107.278 36.7887 107.542 37.214C107.821 37.6247 108.18 37.9547 108.62 38.204C109.06 38.4387 109.522 38.6367 110.006 38.798C110.593 38.9887 111.033 39.15 111.326 39.282C111.634 39.414 111.839 39.546 111.942 39.678C112.059 39.7953 112.118 39.942 112.118 40.118C112.118 40.3233 112.052 40.4847 111.92 40.602C111.788 40.7193 111.583 40.778 111.304 40.778C111.128 40.778 110.879 40.7413 110.556 40.668C110.233 40.5947 109.845 40.4407 109.39 40.206C108.935 39.9713 108.4 39.6193 107.784 39.15Z" fill="#FF0000"/>
</svg>
